<svg xmlns="http://www.w3.org/2000/svg" viewBox="0 0 420 420" version="1.1">
 <g transform="translate(984.75 -174.49)">
  <g transform="translate(-398.12 -42.032)">
   <g transform="translate(-672.45 -538.92)">
    <path style="block-progression:tb;text-indent:0;text-transform:none" stroke-width="14.177" stroke="#000" color="#000000" d="m243.3 1046.3-4.5932 2.4626c-8.11 4.3287-13.639 12.94-17.224 23.038-3.5852 10.099-5.2399 21.852-5.0305 33.166 0.20939 11.314 2.2423 22.188 6.5005 30.559 4.2582 8.3716 11.365 14.486 20.577 14.264 4.4887-0.1085 8.3619-1.5153 11.135-4.125s4.325-6.1667 5.1113-10.062c1.5726-7.7896 0.34524-17.377-1.8134-27.679-4.3173-20.605-12.743-44.315-14.1-56.422z"/>
    <g transform="matrix(.94511 0 0 .94511 15.438 25.441)">
     <path style="block-progression:tb;text-indent:0;text-transform:none" stroke-width="15" stroke="#000" color="#000000" d="m324.14 1080.7-4.0909 2.6196c-7.2245 4.6075-11.741 13.008-14.345 22.652-2.6035 9.6433-3.2936 20.685-2.2831 31.184s3.6838 20.458 8.2447 27.93c4.5608 7.4726 11.606 12.642 20.151 11.771 4.1635-0.4245 7.6614-2.0111 10.05-4.6363s3.5745-6.0426 4.0244-9.7187c0.89971-7.3523-0.9323-16.173-3.6813-25.592-5.498-18.837-15.038-40.263-17.172-51.416z"/>
     <path style="block-progression:tb;text-indent:0;text-transform:none" fill="#ff9298" color="#000000" d="m324.14 1080.7-4.0909 2.6196c-7.2245 4.6075-11.741 13.008-14.345 22.652-2.6035 9.6433-3.2936 20.685-2.2831 31.184s3.6838 20.458 8.2447 27.93c4.5608 7.4726 11.606 12.642 20.151 11.771 4.1635-0.4245 7.6614-2.0111 10.05-4.6363s3.5745-6.0426 4.0244-9.7187c0.89971-7.3523-0.9323-16.173-3.6813-25.592-5.498-18.837-15.038-40.263-17.172-51.416z"/>
    </g>
    <path style="block-progression:tb;text-indent:0;text-transform:none" stroke-width="14.177" stroke="#000" color="#000000" d="m204 1048.4-5.1777 0.5938c-9.135 1.0305-17.451 6.9936-24.51 15.057-7.0588 8.0628-12.934 18.376-16.914 28.969-3.9804 10.593-6.1036 21.45-5.2352 30.802 0.86841 9.352 5.2175 17.658 13.861 20.85 4.2119 1.5555 8.3309 1.6774 11.871 0.2752 3.5404-1.4023 6.2954-4.1355 8.4634-7.4652 4.3361-6.6596 6.7333-16.023 8.5287-26.395 3.5908-20.744 4.5093-45.89 7.7158-57.643z"/>
    <g stroke-width="14.246" stroke="#000" fill="none" transform="matrix(.94511 0 0 .94511 9.7099 45.967)">
     <path stroke-width="14.246" stroke="#000" fill="none" d="m211.74 833.23c-38.793-26.429-62.241-8.8797-102.13-8.3116 31.394 20.114 52.943 28.065 67.622 60.702z"/>
    </g>
    <g transform="matrix(.94511 0 0 -.94511 .7313 1912.6)">
     <path stroke-width="13" stroke="#000" fill="#ffc5bb" d="m449.46 974.5c12.167-0.98651 37.907 29.559 48.114 20.775 10.207-8.785 1.7564-24.682-7.2477-27.455-9.0042-2.7731-19.453 8.2002-25.081 3.131-5.6287-5.0693 19.023-17.359 31.781-14.835s21.832 10.834 24.583 23.959 0.53203 28.538-15.389 38.173c-15.921 9.6347-47.096-6.2072-59.873-14.608-12.778-8.4003-15.607-10.698-14.432-17.909 1.175-7.2104 5.3791-10.245 17.546-11.232z"/>
     <path fill="#ff9298" d="m449.46 974.5c12.167-0.98651 37.907 29.559 48.114 20.775 10.207-8.785 1.7564-24.682-7.2477-27.455-9.0042-2.7731-19.453 8.2002-25.081 3.131-5.6287-5.0693 19.023-17.359 31.781-14.835s21.832 10.834 24.583 23.959 0.53203 28.538-15.389 38.173c-15.921 9.6347-47.096-6.2072-59.873-14.608-12.778-8.4003-15.607-10.698-14.432-17.909 1.175-7.2104 5.3791-10.245 17.546-11.232z"/>
     <path fill="#ffc5bb" d="m-586.12 372.81c-16.394-0.0499-37.611 11.062-47.594 17.625-12.778 8.4003-15.612 10.696-14.438 17.906 1.175 7.2104 5.3957 10.263 17.562 11.25 12.167 0.98651 37.886-29.566 48.094-20.781 4.3396 3.7349 5.3265 8.7492 4.3125 13.5 6.6715-6.297 12.859-13.019 18.531-20.094-2.3563-6.1656-6.7869-11.896-14.188-16.375-3.4826-2.1076-7.691-3.0173-12.281-3.0312zm-25.062 48.969c-1.353 0.0189-2.5696 0.39326-3.625 1.3438-2.9118 2.6224 2.2937 7.1885 9.75 10.625 3.4442-2.308 6.784-4.73 10.062-7.2188-5.7975-0.86415-11.702-4.8125-16.188-4.75z" transform="matrix(1 0 0 -1 1080.1 1394.1)"/>
    </g>
    <path style="block-progression:tb;text-indent:0;text-transform:none" fill="#ff9298" color="#000000" d="m204 1048.4-5.1777 0.5938c-9.135 1.0305-17.451 6.9936-24.51 15.057-7.0588 8.0628-12.934 18.376-16.914 28.969-3.9804 10.593-6.1036 21.45-5.2352 30.802 0.86841 9.352 5.2175 17.658 13.861 20.85 4.2119 1.5555 8.3309 1.6774 11.871 0.2752 3.5404-1.4023 6.2954-4.1355 8.4634-7.4652 4.3361-6.6596 6.7333-16.023 8.5287-26.395 3.5908-20.744 4.5093-45.89 7.7158-57.643z"/>
    <path stroke-width="7.7192" stroke="#000" fill="#ff9298" d="m-794.48 155.35c0 47.7-38.668 86.368-86.368 86.368s-86.368-38.668-86.368-86.368 38.668-86.368 86.368-86.368 86.368 38.668 86.368 86.368z" transform="matrix(1.8365 0 0 1.6566 1893.9 704.71)"/>
    <g transform="matrix(.94511 0 0 .94511 35.487 20.667)">
     <path style="block-progression:tb;text-indent:0;text-transform:none" stroke-width="15" stroke="#000" color="#000000" d="m364.02 1077.9-3.8671 2.94c-6.8309 5.1732-10.658 13.91-12.478 23.731-1.8202 9.8212-1.6207 20.883 0.23024 31.267 1.8509 10.384 5.3159 20.095 10.463 27.177s12.585 11.669 21.032 10.114c4.1159-0.7578 7.4751-2.6203 9.6452-5.429 2.1701-2.8086 3.0774-6.3102 3.2304-10.011 0.30597-7.4008-2.229-16.046-5.7259-25.213-6.9939-18.334-18.225-38.924-21.248-49.87z"/>
     <path style="block-progression:tb;text-indent:0;text-transform:none" fill="#ff9298" color="#000000" d="m364.02 1077.9-3.8671 2.94c-6.8309 5.1732-10.658 13.91-12.478 23.731-1.8202 9.8212-1.6207 20.883 0.23024 31.267 1.8509 10.384 5.3159 20.095 10.463 27.177s12.585 11.669 21.032 10.114c4.1159-0.7578 7.4751-2.6203 9.6452-5.429 2.1701-2.8086 3.0774-6.3102 3.2304-10.011 0.30597-7.4008-2.229-16.046-5.7259-25.213-6.9939-18.334-18.225-38.924-21.248-49.87z"/>
    </g>
    <path style="block-progression:tb;text-indent:0;text-transform:none" fill="#ff9298" color="#000000" d="m243.3 1046.3-4.5932 2.4626c-8.11 4.3287-13.639 12.94-17.224 23.038-3.5852 10.099-5.2399 21.852-5.0305 33.166 0.20939 11.314 2.2423 22.188 6.5005 30.559 4.2582 8.3716 11.365 14.486 20.577 14.264 4.4887-0.1085 8.3619-1.5153 11.135-4.125s4.325-6.1667 5.1113-10.062c1.5726-7.7896 0.34524-17.377-1.8134-27.679-4.3173-20.605-12.743-44.315-14.1-56.422z"/>
    <path fill="#ff9298" d="m-794.48 155.35c0 47.7-38.668 86.368-86.368 86.368s-86.368-38.668-86.368-86.368 38.668-86.368 86.368-86.368 86.368 38.668 86.368 86.368z" transform="matrix(1.8365 0 0 1.6566 1893.9 704.71)"/>
    <path fill="#ffc5bb" d="m276.21 818.97c-87.6 0-158.63 64.074-158.63 143.09 0 30.846 10.835 59.411 29.239 82.777 17.451 4.4949 35.854 6.9003 54.905 6.9003 109.34 0 198.13-79.283 199.63-177.6-29.026-33.573-74.284-55.176-125.14-55.176z"/>
    <path style="block-progression:tb;text-indent:0;text-transform:none" stroke-width="3.7805" stroke="#000" color="#000000" d="m196.86 890.36c-16.975 0-31.106 12.393-31.106 28.031s14.131 28.031 31.106 28.031c9.1926 0 17.552-3.6556 23.284-9.4719 5.797 9.3557 17.104 15.621 29.885 15.621 18.534 0 33.999-13.153 33.999-29.84s-15.465-29.84-33.999-29.84c-10.596 0-20.175 4.2987-26.449 11.1-5.4681-8.2165-15.477-13.631-26.72-13.631z"/>
    <path fill="#fff" d="m72-361.75c0 19.192-17.461 34.75-39 34.75s-39-15.558-39-34.75 17.461-34.75 39-34.75 39 15.558 39 34.75z" transform="matrix(.72339 0 0 .72339 173 1180.1)"/>
    <path fill="#fff" d="m149.5-355.75c0 20.573-19.252 37.25-43 37.25s-43-16.677-43-37.25 19.252-37.25 43-37.25 43 16.677 43 37.25z" transform="matrix(.72339 0 0 .72339 173 1180.1)"/>
    <path d="m93.5-356.75c0 2.8995-2.3505 5.25-5.25 5.25s-5.25-2.3505-5.25-5.25 2.3505-5.25 5.25-5.25 5.25 2.3505 5.25 5.25z" transform="matrix(1.3599 0 0 1.3599 122.46 1409.2)"/>
    <path d="m93.5-356.75c0 2.8995-2.3505 5.25-5.25 5.25s-5.25-2.3505-5.25-5.25 2.3505-5.25 5.25-5.25 5.25 2.3505 5.25 5.25z" transform="matrix(1.3599 0 0 1.3599 80.969 1406.6)"/>
    <path stroke-width="16.189" stroke="#000" fill="#ff9298" d="m-794.48 155.35c0 47.7-38.668 86.368-86.368 86.368s-86.368-38.668-86.368-86.368 38.668-86.368 86.368-86.368 86.368 38.668 86.368 86.368z" transform="matrix(.5838 0 0 .5838 731.16 892.47)"/>
    <path fill="#ff9298" d="m-794.48 155.35c0 47.7-38.668 86.368-86.368 86.368s-86.368-38.668-86.368-86.368 38.668-86.368 86.368-86.368 86.368 38.668 86.368 86.368z" transform="matrix(.5838 0 0 .5838 731.16 892.47)"/>
    <path fill="#ffc5bb" d="m216.92 932.73c-27.847 0-50.411 22.588-50.411 50.434 0 15.088 6.6256 28.62 17.127 37.86 33.33-4.8428 62.575-22.247 82.817-47.245-4.3981-23.362-24.893-41.05-49.533-41.05z"/>
    <path d="m93.5-356.75c0 2.8995-2.3505 5.25-5.25 5.25s-5.25-2.3505-5.25-5.25 2.3505-5.25 5.25-5.25 5.25 2.3505 5.25 5.25z" transform="matrix(1.3599 0 0 1.3599 117.05 1470.6)"/>
    <path d="m93.5-356.75c0 2.8995-2.3505 5.25-5.25 5.25s-5.25-2.3505-5.25-5.25 2.3505-5.25 5.25-5.25 5.25 2.3505 5.25 5.25z" transform="matrix(1.3599 0 0 1.3599 75.568 1468)"/>
    <path fill="#ffc5bb" d="m209.83 833.47c-36.664-24.979-58.825-8.3924-96.521-7.8554 29.671 19.01 50.037 26.524 63.911 57.37z"/>
    <path fill="#ff9298" d="m173.94 829.54c-10.733 0.13106-21.18 3.5793-34.793 3.7732 13.563 8.6898 24.094 13.646 32.252 22.923 8.3116-7.5618 18.077-13.827 28.877-18.43-9.9214-6.5532-18.217-8.366-26.336-8.2668z"/>
    <g transform="matrix(.93541 .13512 -.13512 .93541 126.53 12.674)">
     <path stroke-width="14.246" stroke="#000" fill="none" d="m272.57 829.34c28.276-38.519 55.239-36.985 92.116-52.19-20.919 30.864-34.022 45.625-34.642 81.406z" transform="translate(0,-5e-6)"/>
     <path fill="#ffc5bb" d="m266.88 837.47c25.228-39.585 64.5-46.153 101.38-61.358-20.919 30.864-43.055 52.093-43.675 87.873z"/>
     <path fill="#ff9298" d="m347.86 791.49c-35.105 7.4401-54.031 26.512-72.739 43.25 11.313 2.2981 33.518 17.854 44.22 21.165-7.8668-11.997 9.6964-53.404 28.52-64.414z"/>
    </g>
   </g>
  </g>
 </g>
</svg>