<svg xmlns="http://www.w3.org/2000/svg" viewBox="0 0 295 203">
 <g transform="translate(0,-.36218)">
  <g stroke-width="5" stroke="#000" transform="matrix(.6197 0 0 .6197 -311.9 -114.41)">
   <path fill-rule="evenodd" fill="#fff" d="m888.29 251.46c-30.005-32.048-75.394-27.086-102.5 21.658s-62.442 70.947-111.8 45.738-98.628-32.925-94.798 15.667l5.2414 29.548 28.368 44.133 107.25 50.804 151-43.042 62.094-98.08-44.863-66.426z"/>
   <path fill-rule="evenodd" fill="#fff" d="m940.58 278.9c50.727-52.91-34.992-116.77-63.71-46.632s-108.29 131.56-188.59 127.81c-53.561 10.926-151.68-67.59-165.19-15.966s22.07 67.86 51.816 73.448"/>
   <path fill-rule="evenodd" fill="#fff" d="m916.08 282.56c-14.45-0.0984-29.012-8.0279-47.753-13.504s-35.28-5.3201-41.553 20.425c-6.3259 25.963 20.499 34.61 14.548 50.037-15.492 11.875-37.482 0.48122-54.709-3.3599-21.523-8.7241-36.524 12.09-36.894 31.798-1.7525 19.388-25.763 15.993-34.429 3.5363-7.6936-11.28-16.594-25.909-32.712-23.507-12.654 4.0886-23.606 21.139-38.891 14.397s-9.1898-20.947-18.395-34.462-25.238 7.8411-17.582 23.736 19.592 33.182 39.199 29.702c16.329 5.3782 29.104-17.034 44.716-6.0686s19.149 28.159 38.247 28.958c21.071 1.4749 34.822-21.524 40.048-40.099 5.9784-17.67 24.994 1.2388 39.553 4.579s39.833-4.0704 51.386-17.725c15.468-21.861-23.693-48.213-11.455-62.694 11.39-13.478 24.51 10.345 36.641 13.108 9.3571 0.55573 28.759 10.278 6.5518 11.336"/>
   <path fill-rule="evenodd" fill="#fff" d="m892.27 428.71c109.78-67.136 72.141-200.97-8.1195-142.1s-138.26 137.25-213.17 99.271-144.52 24.743-71.845 81.118c90.858 51.29 183.36 28.848 293.14-38.288z"/>
   <path stroke-linecap="round" fill="none" d="m539.96 346.53c-10.226-0.35125-17.187 9.245-20.105 17.951"/>
   <path stroke-linecap="round" fill="none" d="m935.6 208.67c-9.6641 0.70987-21.675 2.8219-25.849 12.925"/>
  </g>
  <path fill="#fd5" d="m126.61 125.98c-3.7119-4.5254-8.6336-8.9892-11.194-10.152-3.7953-1.724-7.3205-1.1101-15.165 2.6409-2.6582 1.2711-3.6776 1.5177-4.6872 1.1339-3.3464-1.2723-10.44-2.7418-15.253-3.1598-6.2979-0.54705-6.3411-0.57622-10.65-7.1974-3.8123-5.8582-4.9721-9.0923-4.5472-12.68 0.59051-4.986 4.1619-9.474 6.9767-8.7675 1.8362 0.46087 4.2566 4.7528 5.4319 9.6323 1.6241 6.7423 2.7723 9.1844 5.41 11.506 3.1159 2.7428 6.7434 3.8941 10.2 3.2375 3.7477-0.71187 5.0089-1.3018 10.117-4.7325 6.2142-4.1736 7.714-4.8989 10.117-4.8928 4.7438 0.0122 9.4109 3.5559 14.91 11.322 1.6039 2.2649 3.8072 4.8529 4.8962 5.7512 4.265 3.518 11.011 4.7152 15.383 2.73 3.622-1.6449 4.7935-3.976 6.0864-12.111 1.3812-8.6907 6.5902-14.954 13.333-16.033 1.7569-0.28094 4.1438 0.18597 11.529 2.2553 5.1226 1.4353 9.2539 2.7786 9.1807 2.9852-0.24735 0.69792-9.5174 7.9012-10.168 7.9009-0.35477-1.5e-4 -1.9091-0.48074-3.4542-1.068-3.5471-1.3482-5.6849-1.3506-7.8558-0.00885-1.7312 1.0699-2.274 2.0537-4.8669 8.8199-0.78783 2.0558-1.6866 4.0585-1.9973 4.4504-0.85457 1.0779-7.464 4.2721-12.946 6.2566-5.7063 2.0656-11.946 3.4452-15.558 3.4398-2.4825-0.00371-2.6387-0.10103-5.2289-3.259v1e-5z"/>
  <path fill="#fd5" d="m205.45 81.143c-0.97667-1.4919-2.2695-3.8287-2.873-5.1929-3.0935-6.9934 0.51838-18.836 6.8234-22.373 4.6438-2.6049 9.7662-2.0744 23.139 2.3965l7.6749 2.5659-4.738 3.3805c-2.6059 1.8593-5.0146 3.487-5.3526 3.6171s-1.7798-0.65602-3.2039-1.747c-4.7027-3.6025-8.0796-4.311-11.272-2.3649-3.9969 2.4369-4.9902 7.4454-2.5263 12.738 0.73136 1.571 1.3298 3.1654 1.3298 3.543 0 0.61184-6.2568 6.1493-6.9482 6.1493-0.1528 0-1.0769-1.2206-2.0536-2.7125h1e-5z"/>
  <path fill="#f55" d="m34.496 140.23c-7.1547-2.5081-13.184-6.3385-16.529-10.5-5.1653-6.4275-7.3196-15.902-4.7995-21.108 1.29-2.6649 4.7106-5.9305 6.6302-6.3298l2.7181-0.56642c1.0437-0.21784 1.3296-0.56597 1.2015-1.463-0.0925-0.64744-0.57058-1.2538-1.0624-1.3475-1.6943-0.32276-5.2094 0.9945-7.674 2.8758-1.8312 1.3978-2.4003 1.6358-2.1993 0.9197l1.1282-4.0341c0.98963-3.5428 3.2276-6.3587 6.3849-8.0335 1.8358-0.97383 3.0003-1.1496 7.2594-1.0958 2.7901 0.03525 6.8152 0.44795 8.9448 0.91711 4.2563 0.93771 15.188 4.4023 21.561 6.8334 3.9599 1.5105 4.0829 1.6117 4.4043 3.6214 0.39978 2.5001 3.414 8.3504 6.2599 12.15 1.1455 1.5293 2.0827 2.8884 2.0827 3.0203s-1.2616 0.40425-2.8034 0.60524c-3.9923 0.52044-11.936 3.2507-15.079 5.1826-6.7829 4.1694-11.279 9.7668-12.944 16.113-0.51013 1.945-1.172 3.5184-1.4709 3.4965s-2.1053-0.58728-4.0143-1.2565v-1e-5z"/>
  <path fill="#f55" d="m118.55 128.42c-4.4842-0.98456-9.9436-2.9492-14.285-5.1409l-3.6536-1.8443 3.919-1.8064c4.7314-2.1808 7.8911-2.3704 10.689-0.64117 1.8873 1.1664 8.8169 7.9489 9.6594 9.4543 0.56715 1.0135-1.6486 1.0059-6.3285-0.02163z"/>
  <path fill="#f55" d="m139.16 119.68c-3.0487-1.0769-7.1579-4.8602-9.2415-8.5087l-0.96467-1.6892h1.5587c1.999 0 13.138-2.3009 17.991-3.7162 2.0549-0.59932 3.9004-1.0897 4.1011-1.0897s0.1342 0.78096-0.14777 1.7355-0.74512 3.5187-1.0292 5.6983-0.88097 4.5191-1.3264 5.1989c-2.0312 3.1-6.274 4.0195-10.941 2.3711v1e-5z"/>
  <path fill="#f55" d="m165.57 114.96c1.4938-6.0257 3.567-7.6676 7.875-6.2367 1.4442 0.47967 2.5501 0.93499 2.4576 1.0118-1.402 1.1651-9.818 6.6933-10.19 6.6933-0.28526 0-0.34774-0.64212-0.14288-1.4685h-1e-5z"/>
  <path fill="#f55" d="m184.15 94.886c-3.3029-0.92738-6.0062-1.8311-6.0074-2.0083s1.74-1.4773 3.8692-2.8891c4.8445-3.2122 11.452-8.2168 14.949-11.322l2.6719-2.373 0.97473 2.1771c0.5361 1.1974 1.7077 3.2425 2.6036 4.5447s1.6289 2.5973 1.6289 2.8782c0 0.94409-12.457 10.779-13.588 10.728-0.60298-0.02711-3.7987-0.80807-7.1015-1.7355l1e-5 -1e-5z"/>
  <path fill="#f55" d="m215.79 73.104c-1.8832-4.0454-1.7707-6.0167 0.47124-8.2587 0.99854-0.99855 2.2638-1.8156 2.8117-1.8156 1.6224 0 8.8661 4.4353 8.1365 4.9819l-4.4869 3.5581c-2.3495 1.8684-4.5704 3.6226-4.9352 3.8983-0.48361 0.36542-1.0248-0.27516-1.9972-2.3642z"/>
  <path fill="#f55" d="m236.08 54.206c-3.5243-1.2669-7.9698-2.7242-9.8788-3.2385s-3.5525-0.99578-3.6522-1.0701 0.93177-1.9686 2.2921-4.2095 4.6119-8.4868 7.2257-13.88c5.6039-11.562 8.4625-15.053 14.774-18.043 3.3088-1.5671 4.1131-1.7285 8.4622-1.6985 3.0421 0.02102 5.4918 0.32969 6.6748 0.84105l1.869 0.80784-4.003 1.2168c-3.2627 0.99174-4.4725 1.6862-6.5414 3.7551-1.7478 1.7478-2.5383 2.9778-2.5383 3.9496 0 2.086 1.7806 1.8453 3.1873-0.43078 0.62613-1.0131 1.9073-2.3118 2.847-2.886 2.3505-1.4362 7.0412-2.7478 9.8272-2.7478 1.9693 0 2.6731 0.32739 4.6795 2.1768 8.6712 7.9928 10.301 21.18 3.9215 31.731-0.88789 1.4685-2.212 3.3072-2.9424 4.0861l-1.3281 1.4161-3.0207-1.4161c-2.7333-1.2814-3.6048-1.4139-9.1615-1.3922-5.5851 0.02181-6.5488 0.17886-10.648 1.7355-2.4792 0.94131-4.762 1.6862-5.0729 1.6554s-3.4488-1.0927-6.9731-2.3596z"/>
  <path fill="#fff3c3" d="m118.6 190.84c-18.63-0.89894-35.378-5.4321-53.326-14.433-5.3979-2.7072-6.4445-3.491-11.548-8.6487-8.9273-9.0217-12.092-15.689-11.647-24.533 0.3064-6.0766 2.0259-9.7364 6.8208-14.518 6.1503-6.1331 13.517-8.963 24.578-9.4417 10.282-0.44505 17.815 1.2554 29.794 6.7254 7.7057 3.5186 11.622 4.7535 18.264 5.7584 12.123 1.8341 26.356-1.5192 40.401-9.5183 10.726-6.1088 19.223-12.49 43.831-32.919 36.236-30.081 41.508-33.391 53.297-33.461 4.5434-0.02699 5.0786 0.09238 8.9154 1.9887 8.585 4.2429 13.073 12.826 13.606 26.017 0.70866 17.566-6.707 34.88-21.465 50.117-7.1332 7.3649-13.543 12.277-24.695 18.922-37.137 22.132-68.729 34.226-97.071 37.161-6.2482 0.64694-15.21 1.0018-19.758 0.78238z"/>
  <path fill="#ffeda5" d="m95.103 106.46c-0.58739-0.13065-3.7607-0.96824-7.0518-1.8613-6.726-1.8252-6.0725-1.1298-7.9128-8.4189-2.4186-9.5796-7.3792-13.533-12.59-10.033-1.7681 1.1873-4.7057 5.7204-4.747 7.3254-0.0573 2.2221-0.75121 2.2031-7.5181-0.20641l-6.6369-2.3632 0.10868-3.8123c0.14898-5.2259 2.107-9.2281 5.6913-11.633 3.5002-2.3485 6.1553-3.0235 11.822-3.0058 9.3027 0.0292 19.352 2.982 35.396 10.401 14.874 6.8774 17.61 7.6292 27.882 7.659 7.942 0.02307 8.4646-0.04317 12.919-1.6375 12.541-4.4885 22.28-14.006 33.543-32.781 8.6139-14.359 17.217-21.888 28.42-24.87 3.6166-0.96275 10.469-0.95623 14.561 0.01386 3.9885 0.94568 8.2768 2.8166 8.2768 3.6111 0 0.7723-4.4976 9.108-6.4505 11.955l-1.5029 2.1912-4.264 0.29226c-4.8115 0.32978-8.7224 2.0543-11.141 4.9125-3.0144 3.5629-5.7069 11.773-5.3911 16.438l0.18073 2.6695-3.4709 3.0467c-4.8184 4.2294-11.876 9.5145-16.822 12.597-4.1287 2.5733-4.2063 2.5966-8.2244 2.463-3.6376-0.12091-4.4064 0.04054-7.4476 1.5641-2.526 1.2655-4.003 2.4868-5.7894 4.7871-2.2552 2.9041-2.6579 3.17-6.7545 4.461-5.7654 1.8169-9.766 2.792-15.507 3.7796-7.0458 1.2121-7.6038 1.1386-10.313-1.3584-3.3534-3.0911-7.2001-4.756-11.003-4.7624-3.4522-0.00581-4.6446 0.49422-10.362 4.3453-3.7246 2.5087-5.0126 2.8722-7.9004 2.2299z"/>
 </g>
</svg>