<svg version="1.1" xmlns="http://www.w3.org/2000/svg" xmlns:xlink="http://www.w3.org/1999/xlink" width="292.83122" height="287.93104" viewBox="0,0,292.83122,287.93104"><g transform="translate(-93.70939,-35.96047)"><g data-paper-data="{&quot;isPaintingLayer&quot;:true}" fill-rule="nonzero" stroke-linecap="butt" stroke-linejoin="miter" stroke-miterlimit="10" stroke-dasharray="" stroke-dashoffset="0" style="mix-blend-mode: normal"><path d="M376.67737,223.04659c2.61465,2.1825 1.0798,7.27518 -3.76336,7.76992c-5.35856,0.54712 -8.59842,-4.25487 -7.30474,-9.37319c1.40373,-5.55366 6.29913,-8.02709 11.96728,-6.83983c6.62941,1.38852 9.68008,9.40893 7.53477,15.72123c-2.40265,7.07013 -10.43119,10.63731 -17.38765,8.22972c-2.3704,-0.82039 -4.50372,-2.27228 -6.15052,-4.16323" fill="none" stroke="#ef74ab" stroke-width="1.5"/><path d="M308.92684,282.82956h32.43086c0,0 9.19555,28.56646 0,34.63448c-5.22769,3.45055 -10.34466,-8.8505 -16.48981,-8.80562c-5.98203,0.04407 -10.82999,12.12717 -15.94025,8.80562c-9.23425,-6.00218 0,-34.63448 0,-34.63448z" fill="#fecae0" stroke="#fac8dc" stroke-width="0.88432"/><path d="M212.18247,288.20424h32.43086c0,0 9.19555,28.56646 0,34.63448c-5.22769,3.45055 -10.34466,-8.8505 -16.48981,-8.80562c-5.98203,0.04407 -10.82999,12.12717 -15.94025,8.80562c-9.23425,-6.00218 0,-34.63448 0,-34.63448z" fill="#fecae0" stroke="#fac8dc" stroke-width="0.88432"/><path d="M359.98468,233.75909c0,39.93658 -39.27705,72.31194 -87.72998,72.31194c-48.45073,0 -87.72998,-32.37536 -87.72998,-72.31194c0,-39.93658 39.27705,-72.31194 87.72998,-72.31194c48.45017,0 87.72998,32.37536 87.72998,72.31194z" fill="#f27cac" stroke="#f27cac" stroke-width="1"/><path d="M228.60214,93.7212c0,0 -3.21191,-35.97278 53.95917,-57.17055c0,0 48.81828,57.17055 1.92707,96.3547z" fill="#e878aa" stroke="#fac8dc" stroke-width="1"/><path d="M114.56179,138.28004c-46.89121,-39.18416 1.92707,-96.3547 1.92707,-96.3547c57.17108,21.19777 53.95917,57.17055 53.95917,57.17055z" fill="#e878aa" stroke="#fec9e0" stroke-width="1"/><path d="M293.34054,174.33957c0,48.08927 -42.63801,87.07529 -95.23495,87.07529c-52.59694,0 -95.23495,-38.98392 -95.23495,-87.07529c0,-48.08927 42.63801,-87.07529 95.23495,-87.07529c52.59694,0 95.23495,38.98392 95.23495,87.07529z" fill="#fecae0" stroke="#f7c6db" stroke-width="1"/><path d="M266.6851,196.46844c0,26.0689 -30.84959,47.20299 -68.9047,47.20299c-38.05511,0 -68.9047,-21.13295 -68.9047,-47.20299c0,-26.0689 30.84959,-47.20299 68.9047,-47.20299c38.05511,0 68.9047,21.13295 68.9047,47.20299z" fill="#ee78a8" stroke="#fcbad9" stroke-width="1"/><g stroke-width="1"><path d="M189.87781,132.66231c0,2.886 -2.33963,5.22568 -5.22573,5.22568c-2.8861,0 -5.22573,-2.33955 -5.22573,-5.22568c0,-2.886 2.33963,-5.22568 5.22573,-5.22568c2.8861,0 5.22573,2.33955 5.22573,5.22568z" fill="#000000" stroke="#000000"/><path d="M216.75124,132.66231c0,2.886 -2.33963,5.22568 -5.22573,5.22568c-2.8861,0 -5.22573,-2.33955 -5.22573,-5.22568c0,-2.886 2.33963,-5.22568 5.22573,-5.22568c2.8861,0 5.22573,2.33955 5.22573,5.22568z" fill="#000000" stroke="#000000"/><path d="M189.56001,132.66878c0,1.46647 -1.1888,2.65534 -2.65528,2.65534c-1.46647,0 -2.65528,-1.18881 -2.65528,-2.65534c0,-1.46647 1.1888,-2.65534 2.65528,-2.65534c1.46647,0 2.65528,1.18881 2.65528,2.65534z" fill="#ffffff" stroke="#ffffff"/><path d="M211.94558,132.66878c0,1.46647 -1.1888,2.65534 -2.65528,2.65534c-1.46647,0 -2.65528,-1.18881 -2.65528,-2.65534c0,-1.46647 1.1888,-2.65534 2.65528,-2.65534c1.46647,0 2.65528,1.18881 2.65528,2.65534z" fill="#ffffff" stroke="#ffffff"/></g><path d="M234.44819,220.58853c1.27434,10.7186 -7.40471,8.68227 -7.40471,8.68227" fill="none" stroke="#000000" stroke-width="1"/><g fill="#000000" stroke="#000000" stroke-width="0.27496"><path d="M188.19097,195.03405c-4.84474,5.03178 -18.40481,1.67225 -20.33997,-5.03931c-1.93532,-6.71137 7.75406,-16.77494 14.53423,-15.09535c6.7799,1.6797 10.65048,15.10287 5.80574,20.13465z"/><path d="M213.18434,174.89939c6.78017,-1.67959 16.46955,8.38397 14.53423,15.09535c-1.93516,6.71156 -15.49522,10.07109 -20.33997,5.03931c-4.84474,-5.03178 -0.97416,-18.45496 5.80574,-20.13465z"/></g></g></g></svg>